<svg width="1280" height="248" viewBox="0 0 1280 248" fill="none" xmlns="http://www.w3.org/2000/svg">
<rect width="1280" height="248" fill="#23033A"/>
<mask id="mask0_302_16" style="mask-type:alpha" maskUnits="userSpaceOnUse" x="0" y="0" width="1280" height="248">
<rect width="1280" height="248" fill="#23033A"/>
</mask>
<g mask="url(#mask0_302_16)">
<path opacity="0.3" d="M1246 199C1233 199 1220.54 204.129 1211.35 213.259C1202.16 222.389 1197 234.772 1197 247.684V248.316C1197 261.228 1202.16 273.611 1211.35 282.741C1220.54 291.871 1233 297 1246 297C1259 297 1271.46 291.871 1280.65 282.741C1289.84 273.611 1295 261.228 1295 248.316V247.684C1295 234.772 1289.84 222.389 1280.65 213.259C1271.46 204.129 1259 199 1246 199Z" fill="#86428D"/>
<path opacity="0.3" fill-rule="evenodd" clip-rule="evenodd" d="M981 138C1007.51 138 1029 116.51 1029 90C1029 63.4903 1007.51 42 981 42C954.49 42 933 63.4903 933 90C933 116.51 954.49 138 981 138ZM981 68.3014C992.984 68.3014 1002.7 78.0162 1002.7 90C1002.7 101.984 992.984 111.699 981 111.699C969.016 111.699 959.301 101.984 959.301 90C959.301 78.0162 969.016 68.3014 981 68.3014Z" fill="#E935C1"/>
<path opacity="0.3" fill-rule="evenodd" clip-rule="evenodd" d="M295 31C313.778 31 329 15.7777 329 -3C329 -21.7777 313.778 -37 295 -37C276.222 -37 261 -21.7777 261 -3C261 15.7777 276.222 31 295 31ZM295 -18.3699C303.489 -18.3699 310.37 -11.4886 310.37 -3.00003C310.37 5.48851 303.489 12.3698 295 12.3698C286.511 12.3698 279.63 5.48851 279.63 -3.00003C279.63 -11.4886 286.511 -18.3699 295 -18.3699Z" fill="#E935C1"/>
<path opacity="0.3" fill-rule="evenodd" clip-rule="evenodd" d="M0 319C43.6305 319 79 283.63 79 240C79 196.37 43.6305 161 0 161C-43.6305 161 -79 196.37 -79 240C-79 283.63 -43.6305 319 0 319ZM0 204.288C19.7234 204.288 35.7123 220.277 35.7123 240C35.7123 259.723 19.7234 275.712 0 275.712C-19.7234 275.712 -35.7123 259.723 -35.7123 240C-35.7123 220.277 -19.7234 204.288 0 204.288Z" fill="#E935C1"/>
<path opacity="0.3" d="M355 97C342.005 97 329.541 102.129 320.352 111.259C311.163 120.389 306 132.772 306 145.684V146.316C306 159.228 311.163 171.611 320.352 180.741C329.541 189.871 342.005 195 355 195C367.996 195 380.459 189.871 389.648 180.741C398.837 171.611 404 159.228 404 146.316V145.684C404 132.772 398.837 120.389 389.648 111.259C380.459 102.129 367.996 97 355 97Z" fill="#86428D"/>
<path opacity="0.3" d="M134 63C127.635 63 121.53 65.5122 117.029 69.984C112.529 74.4558 110 80.5209 110 86.845V87.1549C110 93.479 112.529 99.5442 117.029 104.016C121.53 108.488 127.635 111 134 111C140.365 111 146.47 108.488 150.971 104.016C155.471 99.5442 158 93.479 158 87.1549V86.845C158 80.5209 155.471 74.4558 150.971 69.984C146.47 65.5122 140.365 63 134 63Z" fill="#EA8FC7"/>
<path opacity="0.3" d="M1250 15C1243.63 15 1237.53 17.5122 1233.03 21.984C1228.53 26.4558 1226 32.5209 1226 38.845V39.1549C1226 45.479 1228.53 51.5442 1233.03 56.016C1237.53 60.4878 1243.63 63 1250 63C1256.37 63 1262.47 60.4878 1266.97 56.016C1271.47 51.5442 1274 45.479 1274 39.1549V38.845C1274 32.5209 1271.47 26.4558 1266.97 21.984C1262.47 17.5122 1256.37 15 1250 15Z" fill="#EA8FC7"/>
</g>
</svg>
