<svg width="22" height="26" viewBox="0 0 22 26" fill="none" xmlns="http://www.w3.org/2000/svg">
<g clip-path="url(#clip0_367_760)">
<path d="M9.81426 24.2291C11.486 24.4552 13.1866 24.2267 14.7445 23.5668C15.3489 23.3137 15.9289 23.0035 16.4769 22.6401L16.6218 24.1001C16.1746 24.3623 15.7106 24.5935 15.2329 24.7919C13.4666 25.538 11.539 25.7949 9.64454 25.5367C7.59963 25.2371 5.70829 24.257 4.26311 22.748C2.73439 21.1592 1.68411 19.155 1.23709 16.9737C0.684756 14.3041 1.10502 11.5202 2.41893 9.14497C3.73388 6.74271 5.85161 4.90532 8.38404 3.96951C9.19987 3.63579 10.0824 3.50805 10.9568 3.59712C11.3384 3.64008 11.7073 3.76341 12.04 3.95933C12.3727 4.15525 12.6621 4.41952 12.89 4.73546C12.9167 4.77467 12.9396 4.81648 12.9583 4.8603C13.5606 6.26736 12.8279 7.14969 12.1303 7.99181C11.7164 8.47847 11.3418 8.94396 11.5694 9.3883C11.6646 9.57873 11.9027 9.72261 12.2442 9.81147C12.7841 9.93278 13.3425 9.9407 13.8855 9.83475C14.4195 9.748 14.9722 9.62316 15.4979 9.51525C15.8166 9.44543 16.1188 9.37772 16.4293 9.31847L16.0153 10.7594L15.7628 10.8144C15.2412 10.9265 14.6927 11.045 14.0842 11.1445C13.3653 11.2777 12.6276 11.2611 11.9151 11.0958C11.2155 10.9096 10.6898 10.5351 10.4166 9.99979C9.78528 8.76199 10.4455 7.96642 11.1348 7.13276C11.5632 6.61649 12.0124 6.07482 11.795 5.45698C11.5382 5.14593 11.1729 4.94937 10.7767 4.90897C10.1103 4.8478 9.43921 4.94933 8.81869 5.20519C6.58223 6.03579 4.71258 7.66095 3.5511 9.78397C2.39437 11.8833 2.02641 14.3418 2.51621 16.6987C2.90882 18.6314 3.83546 20.4085 5.18623 21.8191C6.42818 23.1202 8.05456 23.9671 9.81426 24.2291V24.2291Z" fill="white"/>
<path fill-rule="evenodd" clip-rule="evenodd" d="M5.57132 11.7875C5.7059 12.1371 5.9386 12.4381 6.24016 12.6528C6.54171 12.8675 6.89864 12.9862 7.26603 12.994C7.63342 13.0018 7.99486 12.8983 8.30487 12.6966C8.61488 12.4949 8.85961 12.204 9.00827 11.8605C9.15693 11.5169 9.20287 11.1361 9.14031 10.7659C9.07776 10.3958 8.90951 10.0528 8.65672 9.78011C8.40394 9.50746 8.07792 9.31733 7.71968 9.23365C7.36145 9.14996 6.987 9.17646 6.64346 9.3098C6.413 9.39926 6.20219 9.53459 6.02327 9.70795C5.84434 9.88131 5.70086 10.0892 5.60113 10.3197C5.5014 10.5502 5.44741 10.7986 5.4423 11.0506C5.43718 11.3025 5.48103 11.553 5.57132 11.7875V11.7875Z" fill="white"/>
<path fill-rule="evenodd" clip-rule="evenodd" d="M4.46606 17.4582C4.59957 17.8137 4.83318 18.1207 5.13735 18.3404C5.44151 18.5602 5.80258 18.6828 6.17491 18.6928C6.54723 18.7028 6.9141 18.5997 7.22914 18.3966C7.54417 18.1935 7.79323 17.8994 7.94482 17.5517C8.09641 17.2039 8.14373 16.8179 8.0808 16.4427C8.01787 16.0674 7.84751 15.7196 7.59126 15.4433C7.33501 15.167 7.00438 14.9745 6.64116 14.8903C6.27794 14.806 5.89843 14.8337 5.55062 14.9699C5.08464 15.1535 4.70906 15.5188 4.50646 15.9854C4.30385 16.452 4.29081 16.9818 4.4702 17.4582H4.46606Z" fill="white"/>
<path fill-rule="evenodd" clip-rule="evenodd" d="M13.8442 17.2784C14.0146 17.7301 14.326 18.1118 14.7301 18.3643C15.1342 18.6168 15.6085 18.7259 16.0795 18.6749L15.6428 14.2971C15.4498 14.3162 15.2604 14.3625 15.0798 14.4347C14.8153 14.5376 14.5733 14.6929 14.3677 14.8917C14.162 15.0905 13.9968 15.3288 13.8814 15.593C13.766 15.8572 13.7028 16.142 13.6953 16.4313C13.6879 16.7205 13.7363 17.0084 13.8379 17.2784H13.8442Z" fill="white"/>
<path fill-rule="evenodd" clip-rule="evenodd" d="M19.5258 0C19.3664 2.57715 16.0589 4.16618 17.2263 6.84912C17.3941 7.22529 17.6363 7.56183 17.9377 7.83751C18.239 8.11319 18.593 8.32203 18.9773 8.45085C19.4261 8.59693 19.9122 8.56521 20.3392 8.36198C22.0571 7.56641 22.2621 5.41244 21.755 3.7557C21.281 2.23014 20.2626 0.882324 19.5258 0ZM21.7322 13.3068C20.3772 13.6274 18.9699 13.6412 17.6092 13.347L18.7269 24.5443C18.7359 24.7853 18.7748 25.0242 18.8428 25.2552C18.9022 25.4302 19.0039 25.5869 19.1385 25.7109C19.2731 25.8348 19.4362 25.922 19.6126 25.9642C19.789 26.0065 19.973 26.0024 20.1474 25.9524C20.3219 25.9024 20.4811 25.8082 20.6104 25.6784C20.8 25.4486 20.9047 25.1581 20.9064 24.8574L21.7343 13.3047L21.7322 13.3068ZM20.6145 9.53418C20.095 9.74577 19.1657 9.87061 18.5013 9.53418L17.6299 12.6064C19.0787 12.9365 20.4903 12.9979 21.8481 12.6064C21.1734 11.2671 21.1195 11.1253 20.6062 9.54476L20.6145 9.53418Z" fill="white"/>
<path fill-rule="evenodd" clip-rule="evenodd" d="M9.43152 21.4954C9.56488 21.8508 9.79832 22.1579 10.1023 22.3777C10.4064 22.5976 10.7673 22.7204 11.1396 22.7306C11.5119 22.7408 11.8787 22.638 12.1939 22.4351C12.509 22.2322 12.7582 21.9384 12.91 21.5907C13.0618 21.2431 13.1094 20.8573 13.0468 20.482C12.9841 20.1067 12.8141 19.7588 12.5581 19.4823C12.3021 19.2058 11.9717 19.0131 11.6086 18.9285C11.2455 18.8439 10.8661 18.8713 10.5182 19.0071C10.0522 19.1907 9.67659 19.5559 9.47399 20.0225C9.27138 20.4891 9.25834 21.0189 9.43772 21.4954H9.43152Z" fill="white"/>
</g>
<defs>
<clipPath id="clip0_367_760">
<rect width="21" height="26" fill="white" transform="translate(0.99707)"/>
</clipPath>
</defs>
</svg>
