<svg width="26" height="26" viewBox="0 0 26 26" fill="none" xmlns="http://www.w3.org/2000/svg">
<path fill-rule="evenodd" clip-rule="evenodd" d="M6.80941 18.1109L8.78239 23.1714L16.0558 23.0741L18.068 18.1088C16.3383 15.0055 14.5818 11.2195 13.6788 7.90723L12.7201 8.01067L12.7572 16.9358C12.9628 17.0134 13.1341 17.1621 13.2404 17.3551C13.3466 17.548 13.3808 17.7727 13.3368 17.9887C13.2929 18.2047 13.1736 18.3979 13.0005 18.5336C12.8274 18.6694 12.6117 18.7387 12.3922 18.7292C12.1727 18.7198 11.9638 18.6321 11.8029 18.482C11.642 18.3318 11.5398 18.129 11.5145 17.9101C11.4891 17.6911 11.5424 17.4702 11.6648 17.2871C11.7871 17.104 11.9705 16.9706 12.182 16.911L12.1511 8.0686L11.0543 8.01895C10.2503 11.3581 8.51026 15.1317 6.80941 18.115V18.1109ZM14.3199 0H10.5183C10.4515 -5.53638e-07 10.3854 0.0132319 10.3237 0.0389379C10.2621 0.0646439 10.2061 0.102317 10.1589 0.149797C10.1118 0.197276 10.0745 0.253625 10.0491 0.315612C10.0238 0.377599 10.0109 0.444002 10.0111 0.511011V1.75233H4.0159C3.91324 1.45954 3.74625 1.19367 3.52729 0.974439V0.974439C3.33582 0.782082 3.10845 0.629484 2.85817 0.52537C2.60789 0.421255 2.33962 0.367666 2.06869 0.367666C1.79776 0.367666 1.52948 0.421255 1.27921 0.52537C1.02893 0.629484 0.801554 0.782082 0.610084 0.974439V0.974439C0.418401 1.16658 0.266336 1.39475 0.162586 1.64591C0.0588356 1.89707 0.00543412 2.16628 0.00543412 2.43817C0.00543412 2.71005 0.0588356 2.97926 0.162586 3.23042C0.266336 3.48158 0.418401 3.70975 0.610084 3.90189V3.90189C0.801629 4.09487 1.02926 4.24799 1.27992 4.35247C1.53058 4.45695 1.79933 4.51074 2.07075 4.51074C2.34217 4.51074 2.61092 4.45695 2.86158 4.35247C3.11224 4.24799 3.33987 4.09487 3.53142 3.90189L3.56853 3.86051C3.76989 3.64953 3.92385 3.39767 4.02002 3.12193H7.11247C6.11354 3.70491 5.20965 4.43823 4.43235 5.29631C2.88344 7.00965 1.85858 9.13409 1.48009 11.416H0.65544C0.491406 11.416 0.334091 11.4814 0.218101 11.5978C0.102112 11.7142 0.0369503 11.8721 0.0369503 12.0367V14.8317C0.0369503 14.9964 0.102112 15.1542 0.218101 15.2706C0.334091 15.387 0.491406 15.4524 0.65544 15.4524H3.39123C3.55526 15.4524 3.71257 15.387 3.82856 15.2706C3.94455 15.1542 4.00971 14.9964 4.00971 14.8317V12.0367C4.00971 11.8721 3.94455 11.7142 3.82856 11.5978C3.71257 11.4814 3.55526 11.416 3.39123 11.416H2.75418C3.1214 9.45531 4.02267 7.63498 5.35802 6.15696C6.60389 4.77209 8.21838 3.77358 10.0111 3.27916V4.37153C10.0111 4.5067 10.0645 4.63636 10.1595 4.73214C10.2546 4.82791 10.3836 4.88199 10.5183 4.88254H14.3199C14.453 4.87931 14.5796 4.82411 14.6728 4.72868C14.766 4.63325 14.8184 4.50512 14.8189 4.37153V3.28123C16.6582 3.79099 18.3074 4.83288 19.5606 6.27696C20.8387 7.73721 21.7048 9.51352 22.0696 11.4222H21.4511C21.2871 11.4222 21.1298 11.4876 21.0138 11.604C20.8978 11.7204 20.8326 11.8783 20.8326 12.0429V14.8317C20.8326 14.9964 20.8978 15.1542 21.0138 15.2706C21.1298 15.387 21.2871 15.4524 21.4511 15.4524H24.2013C24.3654 15.4524 24.5227 15.387 24.6387 15.2706C24.7547 15.1542 24.8198 14.9964 24.8198 14.8317V12.0367C24.8198 11.8721 24.7547 11.7142 24.6387 11.5978C24.5227 11.4814 24.3654 11.416 24.2013 11.416H23.3561C22.9761 9.19739 21.9922 7.1274 20.5131 5.43493C19.7077 4.51855 18.7594 3.73949 17.7051 3.12813H21.3171C21.4201 3.42019 21.587 3.68532 21.8057 3.90396V3.90396C22.1915 4.29047 22.7142 4.5079 23.2594 4.50867C23.8045 4.50945 24.3278 4.29351 24.7147 3.9081V3.9081C24.9064 3.71596 25.0584 3.48778 25.1622 3.23663C25.2659 2.98547 25.3193 2.71625 25.3193 2.44437C25.3193 2.17249 25.2659 1.90327 25.1622 1.65212C25.0584 1.40096 24.9064 1.17279 24.7147 0.980645V0.980645C24.5232 0.788289 24.2958 0.635691 24.0456 0.531576C23.7953 0.427462 23.527 0.373873 23.2561 0.373873C22.9852 0.373873 22.7169 0.427462 22.4666 0.531576C22.2163 0.635691 21.9889 0.788289 21.7975 0.980645V0.980645C21.5767 1.19958 21.4088 1.46641 21.3068 1.76061H14.8189V0.519287C14.8211 0.384105 14.7698 0.253554 14.6763 0.156224C14.5828 0.0588942 14.4546 0.00271867 14.3199 0V0ZM8.95969 25.3333H16.0146V23.9224H8.95557V25.3333H8.95969Z" fill="white"/>
</svg>
