<svg width="20" height="20" viewBox="0 0 20 20" fill="#23033A" xmlns="http://www.w3.org/2000/svg">
<path d="M3.81281 7.99167L1.20897 7.85946C1.12666 7.85988 1.04655 7.82867 0.981131 7.77069H0.971366C0.908868 7.71166 0.864369 7.63088 0.844429 7.54027L0.00794574 3.625C0.00794574 3.625 0.00794574 3.61556 0.00794574 3.60989C-0.00999007 3.51048 0.00265558 3.40692 0.0436848 3.31721C0.0847139 3.2275 0.151533 3.1573 0.232527 3.11883L6.64123 0.0515906C6.70834 0.0133339 6.78317 -0.00298919 6.85767 0.00437321H13.1329C13.2294 -0.00723864 13.3269 0.00433395 13.4193 0.0383697L19.7662 3.0414H19.776C19.8525 3.07951 19.916 3.14592 19.9566 3.23027C19.9971 3.32087 20.0098 3.42483 19.9924 3.5249L19.2422 7.55916C19.2422 7.55916 19.2422 7.57049 19.2422 7.57616C19.2227 7.66647 19.1781 7.7468 19.1152 7.80469C19.0494 7.86686 18.9674 7.90146 18.8825 7.9029L16.2705 7.9369V19.5637C16.2703 19.6793 16.2305 19.79 16.1599 19.8716C16.1252 19.9123 16.0839 19.9446 16.0383 19.9667C15.9928 19.9887 15.944 20 15.8946 20H4.17734C4.07775 19.9997 3.98235 19.9535 3.91208 19.8716C3.87699 19.8313 3.84914 19.7834 3.83014 19.7305C3.81115 19.6777 3.80138 19.621 3.80141 19.5637V7.99167H3.81281Z" fill="white"/>
</svg>
